<svg xmlns="http://www.w3.org/2000/svg" viewBox="0 0 800 450">
  <defs>
    <linearGradient id="bgGrad" x1="0%" y1="0%" x2="100%" y2="100%">
      <stop offset="0%" style="stop-color:#e8f0fe;stop-opacity:1"/>
      <stop offset="100%" style="stop-color:#f0f4f8;stop-opacity:1"/>
    </linearGradient>
  </defs>
  <rect width="800" height="450" fill="url(#bgGrad)"/>
  <text x="400" y="36" text-anchor="middle" font-family="Courier New,monospace" font-size="20" font-weight="bold" fill="#1a2a4a">Robot S3RCam</text>
  <text x="400" y="56" text-anchor="middle" font-family="Courier New,monospace" font-size="10" fill="#4a5a7a">AtomS3R-CAM + AtomS3R  |  ESP-NOW ワイヤレス FPV ロボット</text>
  <rect x="60" y="195" width="200" height="130" rx="10" fill="#c8d8e8" stroke="#3a5a8a" stroke-width="2.5"/>
  <rect x="88" y="215" width="144" height="55" rx="5" fill="#2a6a2a" stroke="#1a4a1a" stroke-width="1.5"/>
  <text x="160" y="238" text-anchor="middle" font-family="Courier New,monospace" font-size="8" fill="#8fe88f">サーボ接続基板</text>
  <text x="160" y="251" text-anchor="middle" font-family="Courier New,monospace" font-size="7" fill="#6fc66f">Servo Board</text>
  <rect x="100" y="262" width="12" height="7" fill="#ffd700" rx="1"/>
  <rect x="118" y="262" width="12" height="7" fill="#ffd700" rx="1"/>
  <rect x="136" y="262" width="12" height="7" fill="#ffd700" rx="1"/>
  <rect x="98" y="140" width="124" height="68" rx="8" fill="#1a3a7a" stroke="#0a1a5a" stroke-width="2"/>
  <circle cx="160" cy="172" r="26" fill="#080818" stroke="#3a5a9a" stroke-width="2"/>
  <circle cx="160" cy="172" r="18" fill="#121a40"/>
  <circle cx="160" cy="172" r="10" fill="#0a0a28"/>
  <circle cx="165" cy="167" r="4" fill="#5a7acc" opacity="0.7"/>
  <circle cx="168" cy="165" r="2" fill="#9abcff" opacity="0.6"/>
  <text x="160" y="202" text-anchor="middle" font-family="Courier New,monospace" font-size="8" fill="#8aafff">AtomS3R-CAM</text>
  <circle cx="44" cy="268" r="30" fill="#e8a020" stroke="#9a6010" stroke-width="2.5"/>
  <circle cx="44" cy="268" r="18" fill="#c88010" stroke="#804000" stroke-width="1.5"/>
  <circle cx="44" cy="268" r="6" fill="#a06010"/>
  <line x1="36" y1="260" x2="52" y2="276" stroke="#704000" stroke-width="2"/>
  <line x1="52" y1="260" x2="36" y2="276" stroke="#704000" stroke-width="2"/>
  <text x="44" y="310" text-anchor="middle" font-family="Courier New,monospace" font-size="7" fill="#5a3010">SV1</text>
  <circle cx="276" cy="268" r="30" fill="#e8a020" stroke="#9a6010" stroke-width="2.5"/>
  <circle cx="276" cy="268" r="18" fill="#c88010" stroke="#804000" stroke-width="1.5"/>
  <circle cx="276" cy="268" r="6" fill="#a06010"/>
  <line x1="268" y1="260" x2="284" y2="276" stroke="#704000" stroke-width="2"/>
  <line x1="284" y1="260" x2="268" y2="276" stroke="#704000" stroke-width="2"/>
  <text x="276" y="310" text-anchor="middle" font-family="Courier New,monospace" font-size="7" fill="#5a3010">SV2</text>
  <rect x="128" y="325" width="64" height="22" rx="4" fill="#e8a020" stroke="#9a6010" stroke-width="2"/>
  <rect x="154" y="347" width="12" height="22" rx="2" fill="#c08010"/>
  <text x="160" y="340" text-anchor="middle" font-family="Courier New,monospace" font-size="7" fill="#3a1800">SV3 ARM</text>
  <line x1="74" y1="268" x2="60" y2="268" stroke="#6a8aaa" stroke-width="1.5" stroke-dasharray="4,2"/>
  <line x1="246" y1="268" x2="260" y2="268" stroke="#6a8aaa" stroke-width="1.5" stroke-dasharray="4,2"/>
  <line x1="160" y1="295" x2="160" y2="325" stroke="#6a8aaa" stroke-width="1.5" stroke-dasharray="4,2"/>
  <text x="160" y="400" text-anchor="middle" font-family="Courier New,monospace" font-size="13" font-weight="bold" fill="#1a2a4a">ロボット</text>
  <text x="160" y="417" text-anchor="middle" font-family="Courier New,monospace" font-size="9" fill="#4a5a7a">映像送信・サーボ駆動</text>
  <path d="M 308 240 C 335 215, 365 215, 392 240" stroke="#00bb55" stroke-width="2.5" fill="none"/>
  <path d="M 305 258 C 335 225, 368 225, 398 258" stroke="#00bb55" stroke-width="2" fill="none" opacity="0.65"/>
  <path d="M 302 276 C 335 235, 371 235, 403 276" stroke="#00bb55" stroke-width="1.5" fill="none" opacity="0.35"/>
  <polygon points="392,234 402,248 382,248" fill="#00bb55"/>
  <path d="M 492 240 C 465 215, 435 215, 408 240" stroke="#2288ff" stroke-width="2.5" fill="none"/>
  <path d="M 495 258 C 465 225, 432 225, 402 258" stroke="#2288ff" stroke-width="2" fill="none" opacity="0.65"/>
  <path d="M 498 276 C 465 235, 429 235, 397 276" stroke="#2288ff" stroke-width="1.5" fill="none" opacity="0.35"/>
  <polygon points="408,234 398,248 418,248" fill="#2288ff"/>
  <text x="400" y="212" text-anchor="middle" font-family="Courier New,monospace" font-size="9" fill="#009933">&#9654; 映像</text>
  <text x="400" y="292" text-anchor="middle" font-family="Courier New,monospace" font-size="9" fill="#1166dd">&#9664; 制御</text>
  <text x="400" y="316" text-anchor="middle" font-family="Courier New,monospace" font-size="11" font-weight="bold" fill="#006622">ESP-NOW</text>
  <text x="400" y="332" text-anchor="middle" font-family="Courier New,monospace" font-size="8" fill="#338833">ルーター不要・低遅延</text>
  <rect x="510" y="148" width="240" height="215" rx="12" fill="#1a2a1a" stroke="#0a160a" stroke-width="2.5"/>
  <rect x="524" y="162" width="212" height="128" rx="6" fill="#050d05" stroke="#2a4a2a" stroke-width="2"/>
  <rect x="527" y="165" width="206" height="122" rx="4" fill="#0a160a"/>
  <rect x="527" y="165" width="206" height="61" fill="#0d200d"/>
  <rect x="527" y="226" width="206" height="61" fill="#111d11"/>
  <line x1="630" y1="165" x2="630" y2="287" stroke="#1a2d1a" stroke-width="0.7" opacity="0.8"/>
  <line x1="527" y1="226" x2="733" y2="226" stroke="#1a2d1a" stroke-width="0.7" opacity="0.8"/>
  <text x="630" y="215" text-anchor="middle" font-family="Courier New,monospace" font-size="30" fill="#1c4a1c" opacity="0.45" font-weight="bold">FPV</text>
  <rect x="527" y="276" width="206" height="11" fill="#010801" opacity="0.95"/>
  <text x="630" y="284" text-anchor="middle" font-family="Courier New,monospace" font-size="7.5" fill="#00ff44">ON AIR P2P</text>
  <text x="630" y="308" text-anchor="middle" font-family="Courier New,monospace" font-size="8" fill="#4a8a4a">AtomS3R</text>
  <circle cx="545" cy="340" r="24" fill="#3a3a3a" stroke="#6a6a6a" stroke-width="2"/>
  <circle cx="545" cy="340" r="13" fill="#5a5a5a" stroke="#8a8a8a" stroke-width="1.5"/>
  <circle cx="545" cy="340" r="5" fill="#aaaaaa"/>
  <circle cx="615" cy="340" r="14" fill="#cc2222" stroke="#881111" stroke-width="2"/>
  <text x="615" y="344" text-anchor="middle" font-family="Courier New,monospace" font-size="7" fill="#fff" font-weight="bold">TRG</text>
  <circle cx="660" cy="326" r="14" fill="#22aa22" stroke="#116611" stroke-width="2"/>
  <text x="660" y="330" text-anchor="middle" font-family="Courier New,monospace" font-size="8" fill="#fff" font-weight="bold">OK</text>
  <circle cx="705" cy="340" r="14" fill="#2222cc" stroke="#111188" stroke-width="2"/>
  <text x="705" y="344" text-anchor="middle" font-family="Courier New,monospace" font-size="8" fill="#fff" font-weight="bold">NG</text>
  <text x="630" y="400" text-anchor="middle" font-family="Courier New,monospace" font-size="13" font-weight="bold" fill="#1a2a4a">コントローラ</text>
  <text x="630" y="417" text-anchor="middle" font-family="Courier New,monospace" font-size="9" fill="#4a5a7a">LCD表示・操作入力</text>
</svg>
